<mxfile host="app.diagrams.net" modified="2024-09-25T19:52:42.373Z" agent="Mozilla/5.0 (Windows NT 10.0; Win64; x64) AppleWebKit/537.36 (KHTML, like Gecko) Chrome/129.0.0.0 Safari/537.36" etag="rEq_vH0wp154amRIxJ-Z" version="24.6.4" type="github">
  <diagram id="C5RBs43oDa-KdzZeNtuy" name="Page-1">
    <mxGraphModel dx="836" dy="1103" grid="1" gridSize="10" guides="1" tooltips="1" connect="1" arrows="1" fold="1" page="1" pageScale="1" pageWidth="827" pageHeight="1169" math="0" shadow="0">
      <root>
        <mxCell id="WIyWlLk6GJQsqaUBKTNV-0" />
        <mxCell id="WIyWlLk6GJQsqaUBKTNV-1" parent="WIyWlLk6GJQsqaUBKTNV-0" />
        <mxCell id="0uDZUke51LlT-IafIDJ8-2" style="edgeStyle=orthogonalEdgeStyle;rounded=0;orthogonalLoop=1;jettySize=auto;html=1;exitX=0.5;exitY=1;exitDx=0;exitDy=0;" edge="1" parent="WIyWlLk6GJQsqaUBKTNV-1" source="0uDZUke51LlT-IafIDJ8-0" target="0uDZUke51LlT-IafIDJ8-1">
          <mxGeometry relative="1" as="geometry" />
        </mxCell>
        <mxCell id="0uDZUke51LlT-IafIDJ8-0" value="User Input" style="rounded=1;whiteSpace=wrap;html=1;" vertex="1" parent="WIyWlLk6GJQsqaUBKTNV-1">
          <mxGeometry x="354" y="80" width="120" height="60" as="geometry" />
        </mxCell>
        <mxCell id="0uDZUke51LlT-IafIDJ8-4" style="edgeStyle=orthogonalEdgeStyle;rounded=0;orthogonalLoop=1;jettySize=auto;html=1;exitX=0.5;exitY=1;exitDx=0;exitDy=0;" edge="1" parent="WIyWlLk6GJQsqaUBKTNV-1" source="0uDZUke51LlT-IafIDJ8-1" target="0uDZUke51LlT-IafIDJ8-3">
          <mxGeometry relative="1" as="geometry" />
        </mxCell>
        <mxCell id="0uDZUke51LlT-IafIDJ8-1" value="Message State" style="rounded=1;whiteSpace=wrap;html=1;" vertex="1" parent="WIyWlLk6GJQsqaUBKTNV-1">
          <mxGeometry x="354" y="200" width="120" height="60" as="geometry" />
        </mxCell>
        <mxCell id="0uDZUke51LlT-IafIDJ8-6" style="edgeStyle=orthogonalEdgeStyle;rounded=0;orthogonalLoop=1;jettySize=auto;html=1;exitX=0;exitY=0.5;exitDx=0;exitDy=0;entryX=0.5;entryY=0;entryDx=0;entryDy=0;" edge="1" parent="WIyWlLk6GJQsqaUBKTNV-1" source="0uDZUke51LlT-IafIDJ8-3" target="0uDZUke51LlT-IafIDJ8-5">
          <mxGeometry relative="1" as="geometry" />
        </mxCell>
        <mxCell id="0uDZUke51LlT-IafIDJ8-8" style="edgeStyle=orthogonalEdgeStyle;rounded=0;orthogonalLoop=1;jettySize=auto;html=1;exitX=1;exitY=0.5;exitDx=0;exitDy=0;entryX=0.5;entryY=0;entryDx=0;entryDy=0;" edge="1" parent="WIyWlLk6GJQsqaUBKTNV-1" source="0uDZUke51LlT-IafIDJ8-3" target="0uDZUke51LlT-IafIDJ8-7">
          <mxGeometry relative="1" as="geometry" />
        </mxCell>
        <mxCell id="0uDZUke51LlT-IafIDJ8-3" value="onSubmit" style="rounded=1;whiteSpace=wrap;html=1;" vertex="1" parent="WIyWlLk6GJQsqaUBKTNV-1">
          <mxGeometry x="354" y="320" width="120" height="60" as="geometry" />
        </mxCell>
        <mxCell id="0uDZUke51LlT-IafIDJ8-18" style="edgeStyle=orthogonalEdgeStyle;rounded=0;orthogonalLoop=1;jettySize=auto;html=1;exitX=0.5;exitY=1;exitDx=0;exitDy=0;dashed=1;" edge="1" parent="WIyWlLk6GJQsqaUBKTNV-1" source="0uDZUke51LlT-IafIDJ8-5" target="0uDZUke51LlT-IafIDJ8-13">
          <mxGeometry relative="1" as="geometry" />
        </mxCell>
        <mxCell id="0uDZUke51LlT-IafIDJ8-5" value="localStorage" style="rounded=1;whiteSpace=wrap;html=1;" vertex="1" parent="WIyWlLk6GJQsqaUBKTNV-1">
          <mxGeometry x="234" y="440" width="120" height="60" as="geometry" />
        </mxCell>
        <mxCell id="0uDZUke51LlT-IafIDJ8-10" style="edgeStyle=orthogonalEdgeStyle;rounded=0;orthogonalLoop=1;jettySize=auto;html=1;exitX=0.5;exitY=1;exitDx=0;exitDy=0;entryX=0.5;entryY=0;entryDx=0;entryDy=0;" edge="1" parent="WIyWlLk6GJQsqaUBKTNV-1" source="0uDZUke51LlT-IafIDJ8-7" target="0uDZUke51LlT-IafIDJ8-9">
          <mxGeometry relative="1" as="geometry" />
        </mxCell>
        <mxCell id="0uDZUke51LlT-IafIDJ8-7" value="OpenAI API" style="rounded=1;whiteSpace=wrap;html=1;" vertex="1" parent="WIyWlLk6GJQsqaUBKTNV-1">
          <mxGeometry x="474" y="440" width="120" height="60" as="geometry" />
        </mxCell>
        <mxCell id="0uDZUke51LlT-IafIDJ8-12" style="edgeStyle=orthogonalEdgeStyle;rounded=0;orthogonalLoop=1;jettySize=auto;html=1;exitX=0.5;exitY=1;exitDx=0;exitDy=0;entryX=0.5;entryY=0;entryDx=0;entryDy=0;" edge="1" parent="WIyWlLk6GJQsqaUBKTNV-1" source="0uDZUke51LlT-IafIDJ8-9" target="0uDZUke51LlT-IafIDJ8-11">
          <mxGeometry relative="1" as="geometry" />
        </mxCell>
        <mxCell id="0uDZUke51LlT-IafIDJ8-9" value="API Response" style="rounded=1;whiteSpace=wrap;html=1;" vertex="1" parent="WIyWlLk6GJQsqaUBKTNV-1">
          <mxGeometry x="474" y="560" width="120" height="60" as="geometry" />
        </mxCell>
        <mxCell id="0uDZUke51LlT-IafIDJ8-11" value="Display" style="rounded=1;whiteSpace=wrap;html=1;" vertex="1" parent="WIyWlLk6GJQsqaUBKTNV-1">
          <mxGeometry x="474" y="680" width="120" height="60" as="geometry" />
        </mxCell>
        <mxCell id="0uDZUke51LlT-IafIDJ8-19" style="edgeStyle=orthogonalEdgeStyle;rounded=0;orthogonalLoop=1;jettySize=auto;html=1;exitX=1;exitY=0.5;exitDx=0;exitDy=0;entryX=0;entryY=0.5;entryDx=0;entryDy=0;dashed=1;" edge="1" parent="WIyWlLk6GJQsqaUBKTNV-1" source="0uDZUke51LlT-IafIDJ8-13" target="0uDZUke51LlT-IafIDJ8-11">
          <mxGeometry relative="1" as="geometry" />
        </mxCell>
        <mxCell id="0uDZUke51LlT-IafIDJ8-13" value="onLoad / Refresh" style="rounded=1;whiteSpace=wrap;html=1;" vertex="1" parent="WIyWlLk6GJQsqaUBKTNV-1">
          <mxGeometry x="234" y="680" width="120" height="60" as="geometry" />
        </mxCell>
      </root>
    </mxGraphModel>
  </diagram>
</mxfile>
